<svg version="1.0" xmlns="http://www.w3.org/2000/svg" width="280.000000pt" height="253.000000pt" viewBox="0 0 280.000000 253.000000" preserveAspectRatio="xMidYMid meet" style="width: 364px; height: auto;"> <g transform="translate(0.000000,253.000000) scale(0.100000,-0.100000)" fill="#000000" stroke="none" class=""> <path d="M0 1265 l0 -1265 1400 0 1400 0 0 1265 0 1265 -1400 0 -1400 0 0 -1265z m1487 1046 c39 -10 97 -33 129 -51 77 -44 196 -158 250 -241 39 -60 89 -167 82 -175 -2 -1 -36 17 -75 41 -128 79 -276 153 -348 175 -42 13 -110 24 -172 27 -91 5 -110 3 -187 -21 -165 -51 -323 -191 -374 -331 -21 -58 -14 75 9 161 29 110 73 188 149 264 142 142 350 201 537 151z m-85 -307 c-119 -94 -158 -296 -84 -446 73 -149 196 -231 345 -229 37 0 67 -1 67 -3 0 -2 -47 -16 -104 -31 -98 -26 -109 -27 -183 -16 -196 29 -347 171 -388 368 -16 78 -12 145 16 228 30 90 55 115 136 136 37 10 104 18 148 18 l80 1 -33 -26z m186 -17 l31 -13 -30 -19 c-98 -65 -136 -212 -87 -342 15 -41 38 -74 77 -114 47 -47 68 -59 136 -81 l80 -27 -76 0 c-92 -1 -167 20 -237 66 -154 103 -188 324 -71 467 59 71 113 90 177 63z m-579 -94 c-20 -54 -30 -180 -19 -250 26 -159 134 -305 280 -376 95 -47 191 -71 247 -63 58 8 54 0 -10 -19 -82 -24 -237 -21 -317 5 -82 27 -166 78 -224 135 -50 48 -124 157 -150 219 -15 36 -15 43 -1 87 26 78 71 152 136 222 33 37 63 67 65 67 2 0 -1 -12 -7 -27z m-194 -892 c3 -5 2 -12 -3 -15 -5 -3 -9 1 -9 9 0 17 3 19 12 6z m509 0 c3 -5 -2 -15 -12 -22 -15 -12 -16 -12 -5 2 7 9 10 19 6 22 -3 4 -4 7 0 7 3 0 8 -4 11 -9z m-989 -10 c3 -5 2 -12 -3 -15 -5 -3 -9 1 -9 9 0 17 3 19 12 6z m228 -15 c21 -8 47 -22 58 -32 19 -17 19 -18 -7 -45 l-27 -28 -27 20 c-53 40 -159 20 -195 -35 -20 -29 -30 -87 -21 -120 9 -35 55 -87 91 -102 36 -15 108 -3 136 22 14 13 19 11 44 -12 l29 -27 -30 -23 c-61 -50 -162 -56 -243 -14 -75 38 -130 142 -116 219 27 143 171 225 308 177z m516 -17 c47 -26 97 -95 107 -146 16 -85 -27 -184 -99 -230 -58 -37 -156 -44 -213 -15 -146 75 -169 270 -44 371 22 17 50 36 62 41 39 17 141 5 187 -21z m464 1 l36 -22 -22 -33 -21 -33 -29 24 c-16 13 -38 24 -51 24 -27 0 -66 -26 -66 -45 0 -18 57 -62 93 -71 16 -3 47 -24 69 -45 39 -37 40 -40 36 -89 -6 -56 -26 -86 -75 -106 -46 -20 -100 -17 -149 7 -64 31 -71 43 -41 78 24 29 25 29 42 11 41 -45 118 -50 134 -8 14 40 0 57 -75 92 -82 40 -107 68 -106 126 1 54 17 78 65 101 51 24 108 19 160 -11z m817 -177 c51 -115 98 -214 104 -222 9 -12 7 -13 -14 -8 -14 4 -37 7 -51 7 -19 0 -29 9 -42 35 l-17 35 -84 0 -84 0 -15 -37 c-14 -35 -17 -37 -60 -38 l-45 0 33 65 c18 36 49 103 70 150 78 178 98 220 105 220 4 0 49 -93 100 -207z m-330 162 l0 -35 -65 0 -65 0 3 -177 2 -178 -47 0 -48 0 0 178 0 179 -60 -4 -60 -3 0 38 0 37 170 0 170 0 0 -35z m-1639 -148 c-10 -9 -11 -8 -5 6 3 10 9 15 12 12 3 -3 0 -11 -7 -18z m804 -156 c3 -5 2 -12 -3 -15 -5 -3 -9 1 -9 9 0 17 3 19 12 6z m-745 -201 c0 -5 -2 -10 -4 -10 -3 0 -8 5 -11 10 -3 6 -1 10 4 10 6 0 11 -4 11 -10z m-22 -35 c12 -3 22 -13 22 -20 0 -11 -11 -13 -48 -8 -56 6 -73 -7 -74 -58 -1 -36 35 -74 61 -65 58 18 61 18 61 2 0 -17 -37 -36 -72 -36 -31 0 -88 63 -88 98 0 33 32 79 64 92 21 8 29 8 74 -5z m113 -73 l-2 -84 43 4 c34 2 43 0 46 -14 3 -16 -5 -18 -57 -18 l-61 0 0 101 c0 88 2 100 17 97 14 -3 16 -16 14 -86z m422 -14 c39 -83 43 -98 28 -98 -10 0 -23 11 -29 24 -9 21 -17 25 -47 23 -23 -2 -40 -10 -51 -25 -8 -12 -21 -22 -29 -22 -9 0 -2 27 26 92 43 98 50 111 54 106 1 -2 23 -47 48 -100z m212 -23 c-2 11 -6 41 -9 68 -5 42 -4 47 14 47 19 0 20 -7 20 -97 l0 -97 -62 62 -63 62 3 -60 c4 -55 2 -60 -17 -60 -20 0 -21 5 -21 103 l1 102 69 -75 c41 -45 68 -67 65 -55z m552 103 c22 -18 3 -28 -38 -22 -50 8 -79 -14 -79 -62 0 -38 29 -64 72 -64 21 0 28 5 28 20 0 11 -7 20 -15 20 -8 0 -15 7 -15 15 0 10 10 15 33 15 31 0 32 -2 32 -40 0 -35 -4 -41 -29 -50 -50 -17 -76 -12 -112 24 -52 52 -44 108 19 147 33 20 78 18 104 -3z m317 9 c25 -11 27 -14 13 -25 -12 -10 -21 -11 -36 -3 -51 28 -108 -46 -75 -96 20 -32 37 -37 74 -25 20 8 32 8 36 1 10 -17 -10 -30 -53 -36 -33 -4 -43 -1 -71 25 -52 48 -41 125 23 160 26 15 53 14 89 -1z m209 2 c28 -13 57 -58 57 -89 0 -31 -29 -76 -57 -89 -93 -43 -184 64 -122 143 34 43 77 55 122 35z m-1463 -14 c0 -11 -12 -15 -45 -15 -41 0 -45 -2 -45 -24 0 -22 3 -24 40 -20 34 3 40 1 40 -16 0 -17 -7 -20 -40 -20 -36 0 -40 -2 -40 -25 0 -15 5 -25 13 -24 41 5 77 -2 77 -16 0 -12 -13 -15 -59 -15 l-60 0 -3 95 -3 95 63 0 c48 0 62 -3 62 -15z m510 -80 c0 -88 -1 -95 -20 -95 -19 0 -20 7 -20 95 0 88 1 95 20 95 19 0 20 -7 20 -95z m127 33 l62 -62 -5 62 c-5 58 -4 62 15 62 20 0 21 -5 21 -97 l-1 -98 -75 78 c-41 43 -70 69 -65 58 6 -11 11 -45 11 -76 0 -46 -3 -56 -16 -53 -12 2 -16 21 -17 96 -1 50 0 92 3 92 2 0 33 -28 67 -62z m971 -101 c4 -21 -25 -34 -40 -19 -8 8 -8 16 2 27 16 19 34 15 38 -8z" class=""></path>       <path d="M438 959 c-15 -4 -30 -4 -34 0 -4 3 -3 0 1 -8 6 -11 4 -13 -10 -7 -15 5 -16 4 -5 -9 11 -13 10 -14 -4 -9 -9 3 -16 1 -16 -5 0 -6 -5 -11 -11 -11 -5 0 -7 6 -4 13 4 6 0 4 -8 -5 -8 -10 -17 -15 -20 -11 -6 6 -9 -4 -6 -23 0 -4 -3 -10 -8 -13 -13 -10 -44 -73 -31 -65 8 5 9 -1 4 -20 -4 -15 -3 -25 2 -22 5 3 9 -1 9 -9 0 -8 -4 -12 -8 -9 -4 2 -11 -1 -15 -7 -4 -8 -3 -9 4 -5 8 4 12 -1 13 -13 3 -43 5 -46 26 -45 12 0 19 -4 16 -9 -3 -6 -1 -7 6 -3 9 6 9 13 -2 29 -8 12 -13 30 -11 40 1 9 -2 14 -7 11 -6 -3 -7 5 -3 22 5 18 3 25 -4 20 -14 -8 -10 18 6 36 6 8 9 18 5 21 -3 4 0 7 7 7 7 0 11 3 8 6 -18 18 110 92 134 78 7 -4 8 -3 4 4 -11 18 29 15 44 -3 7 -8 16 -12 21 -9 5 3 15 2 21 -2 7 -5 21 -9 30 -9 17 -2 17 0 2 16 -9 10 -23 15 -32 12 -10 -4 -13 -2 -8 5 5 8 -2 12 -21 13 -15 1 -37 2 -48 4 -11 1 -32 -2 -47 -6z m-137 -142 c-10 -9 -11 -8 -5 6 3 10 9 15 12 12 3 -3 0 -11 -7 -18z"></path> <path d="M320 653 c0 -2 7 -11 15 -19 13 -14 15 -13 15 3 0 15 2 15 9 3 6 -8 7 -18 5 -22 -3 -4 2 -8 11 -8 10 0 13 -5 9 -12 -4 -7 -4 -10 0 -6 4 3 29 -2 54 -13 26 -10 40 -13 31 -7 -13 11 -7 13 40 12 37 -1 64 5 78 15 26 19 30 33 6 24 -12 -5 -14 -3 -8 7 5 9 4 11 -4 6 -6 -4 -9 -10 -7 -14 2 -4 -8 -8 -22 -9 -15 0 -28 -6 -30 -12 -2 -5 -9 -8 -15 -6 -7 2 -28 6 -47 9 -25 4 -31 3 -20 -4 8 -5 10 -10 4 -10 -6 0 -20 11 -30 25 -19 26 -40 35 -29 13 4 -7 -1 -4 -10 7 -14 17 -55 31 -55 18z"></path> <path d="M912 957 c-32 -8 -41 -14 -37 -25 4 -12 3 -13 -10 -2 -14 11 -19 7 -16 -12 0 -4 -9 -10 -21 -14 -21 -6 -21 -7 -3 -20 10 -8 14 -14 9 -14 -6 0 -11 -7 -11 -16 0 -15 2 -15 13 1 7 9 10 24 7 33 -4 10 -2 13 5 8 7 -4 12 -2 12 4 0 6 4 8 10 5 5 -3 24 2 42 12 32 17 101 26 92 12 -2 -4 3 -10 12 -13 8 -3 12 -2 9 4 -3 5 7 2 24 -7 16 -10 28 -20 25 -24 -5 -8 27 -22 34 -14 3 3 1 5 -5 5 -5 0 -10 7 -10 16 0 15 2 14 13 -1 9 -12 10 -22 4 -30 -7 -8 -2 -24 15 -49 14 -21 21 -35 15 -31 -5 3 -10 2 -10 -4 0 -5 6 -12 13 -14 9 -4 9 -6 -1 -6 -8 -1 -10 -9 -6 -27 5 -20 4 -25 -5 -19 -8 5 -11 1 -9 -11 2 -12 -2 -18 -10 -16 -9 2 -11 -2 -6 -10 12 -19 14 -38 3 -38 -5 0 -9 7 -9 15 0 12 -3 12 -18 -2 -11 -10 -17 -21 -15 -25 2 -4 -4 -5 -13 -1 -13 5 -15 3 -9 -7 5 -8 4 -11 -1 -7 -6 3 -16 2 -23 -3 -11 -6 -9 -10 8 -19 17 -10 22 -9 27 4 4 9 12 14 19 11 7 -2 25 9 41 25 15 16 24 29 18 29 -5 0 -1 5 8 11 9 5 15 16 12 23 -3 8 -1 17 4 20 12 7 7 98 -7 125 -7 11 -9 21 -6 21 10 0 -23 36 -64 70 -28 23 -35 25 -26 8 4 -7 0 -5 -9 6 -8 10 -21 16 -28 14 -7 -3 -24 -2 -38 2 -14 3 -44 2 -68 -3z m228 -128 c0 -6 -4 -7 -10 -4 -5 3 -10 11 -10 16 0 6 5 7 10 4 6 -3 10 -11 10 -16z"></path> <path d="M905 891 c-52 -31 -68 -58 -72 -114 -7 -88 45 -147 130 -149 131 -2 196 151 102 240 -48 45 -110 54 -160 23z"></path> <path d="M787 853 c-19 -39 -21 -115 -3 -156 8 -20 11 -39 8 -43 -4 -5 1 -2 11 5 15 12 17 12 12 -1 -6 -16 41 -58 65 -58 6 0 8 -5 4 -12 -5 -9 -2 -9 9 1 9 7 17 9 17 3 0 -12 29 -24 40 -17 16 10 -1 34 -21 30 -10 -2 -19 0 -19 5 0 5 -9 7 -20 5 -11 -2 -18 0 -15 4 2 5 -3 15 -12 22 -15 12 -16 12 -10 -3 4 -12 2 -15 -8 -11 -11 4 -12 10 -4 25 6 11 7 18 1 15 -13 -9 -35 41 -37 83 0 19 -5 34 -11 33 -12 -2 -13 42 -1 53 4 5 5 1 2 -8 -4 -9 -2 -19 4 -23 6 -3 11 0 12 7 1 7 2 25 3 41 2 15 -1 27 -5 27 -5 0 -15 -12 -22 -27z"></path> <path d="M963 587 c0 -8 13 -13 35 -13 30 0 32 1 16 13 -10 7 -25 13 -34 13 -9 0 -17 -6 -17 -13z"></path> <path d="M1424 954 c6 -15 4 -16 -5 -7 -30 30 -90 -46 -73 -92 6 -14 4 -16 -7 -11 -8 4 -3 -2 11 -14 14 -12 19 -19 13 -15 -23 11 -14 -2 12 -19 16 -11 34 -14 51 -10 l27 7 -24 13 c-26 13 -43 9 -33 -8 4 -7 2 -8 -4 -4 -6 4 -9 13 -5 21 3 9 -1 22 -8 31 -7 9 -14 29 -15 46 -2 23 0 27 11 18 10 -8 15 -8 22 2 15 23 48 37 66 26 9 -5 17 -7 17 -4 0 3 -14 13 -31 22 -30 15 -32 15 -25 -2z" class=""></path> <path d="M1482 951 c6 -11 16 -17 20 -15 4 3 8 0 8 -6 0 -6 4 -9 9 -6 5 4 12 0 14 -6 3 -7 6 -3 6 10 1 14 -3 21 -9 17 -6 -4 -22 1 -36 10 -24 15 -24 15 -12 -4z"></path> <path d="M1440 780 c-24 -6 -24 -7 -5 -17 14 -8 25 -8 40 -1 17 10 18 9 8 -3 -9 -11 -6 -18 13 -32 21 -16 25 -16 30 -3 3 9 11 13 17 9 5 -3 7 -2 4 4 -4 6 -18 9 -32 8 -14 -2 -23 1 -19 6 3 5 10 7 15 4 5 -4 9 -4 9 -1 0 13 -57 32 -80 26z"></path> <path d="M1529 713 c0 -5 -2 -21 -4 -38 -4 -28 -3 -29 11 -11 8 11 14 15 14 8 0 -6 -8 -17 -19 -24 -10 -7 -20 -17 -22 -23 -2 -5 -8 -9 -13 -7 -5 2 -3 -5 5 -14 13 -16 12 -16 -10 -5 -13 7 -21 9 -18 4 11 -18 -67 -10 -83 8 -8 9 -26 20 -40 23 -14 3 -19 3 -12 0 6 -3 9 -11 5 -17 -4 -6 0 -8 10 -4 12 4 14 2 10 -10 -4 -10 -2 -14 4 -10 6 4 13 3 15 -3 2 -6 23 -11 48 -12 82 -2 89 0 96 28 4 17 9 22 14 14 10 -16 18 -1 24 44 2 20 0 36 -5 36 -6 0 -7 5 -4 10 3 6 -1 10 -9 10 -9 0 -16 -3 -17 -7z"></path> <path d="M2242 918 c-15 -15 -16 -28 -1 -28 5 0 8 4 5 9 -3 5 1 12 9 15 13 4 14 2 5 -14 -6 -11 -15 -20 -19 -20 -5 0 -16 -12 -26 -26 -9 -15 -12 -23 -6 -20 17 11 13 -10 -5 -28 -13 -14 -13 -16 -1 -16 16 0 40 54 29 65 -4 3 2 3 12 -1 13 -5 17 -4 13 3 -4 6 -1 16 7 22 15 13 15 43 0 48 -5 2 -15 -2 -22 -9z"></path> <path d="M2278 879 c-10 -5 -15 -16 -12 -24 4 -8 1 -15 -5 -15 -6 0 -11 -7 -11 -15 0 -8 -13 -42 -28 -75 -19 -40 -26 -64 -20 -74 5 -9 5 -16 1 -16 -13 0 -32 49 -22 56 5 3 7 9 4 14 -3 4 2 13 10 20 8 7 12 17 8 23 -4 6 -10 1 -15 -12 -5 -14 -12 -19 -20 -15 -8 5 -9 2 -5 -9 4 -10 1 -17 -5 -17 -6 0 -9 -3 -5 -6 3 -4 0 -13 -8 -21 -18 -17 -19 -33 -4 -33 7 0 0 -9 -15 -21 -31 -24 -34 -48 -6 -46 11 1 20 5 20 10 0 5 -7 6 -16 3 -14 -5 -15 -4 -4 9 7 8 16 12 21 9 5 -3 9 0 9 5 0 6 7 11 15 11 9 0 12 6 8 17 -5 12 -3 14 8 7 8 -5 41 -9 74 -10 34 0 67 -4 75 -9 8 -5 11 -4 7 1 -3 6 5 11 18 12 26 2 42 -13 25 -23 -13 -8 -12 -16 6 -40 12 -17 16 -17 24 -6 8 15 -19 83 -39 95 -5 3 -12 22 -15 41 -4 19 -11 35 -17 35 -6 0 -7 5 -4 10 3 6 -1 10 -10 10 -13 0 -14 -4 -4 -22 7 -13 13 -25 13 -28 1 -3 5 -4 10 -2 5 2 3 -5 -5 -14 -12 -16 -12 -17 1 -9 12 6 12 5 3 -5 -6 -7 -15 -10 -21 -6 -15 9 -54 126 -48 143 6 14 21 11 21 -5 0 -4 4 -13 9 -21 7 -10 6 -12 -4 -6 -9 5 -11 4 -6 -3 10 -16 35 -15 32 1 -1 6 -10 26 -19 43 -9 17 -13 34 -10 38 9 9 1 7 -19 -5z m42 -194 c10 -12 5 -14 -39 -12 -28 1 -52 -1 -54 -6 -1 -4 -8 2 -15 13 -12 19 -10 20 42 20 35 0 58 -5 66 -15z m44 -3 c3 -5 -1 -9 -9 -9 -8 0 -12 4 -9 9 3 4 7 8 9 8 2 0 6 -4 9 -8z"></path> <path d="M2350 640 c0 -5 4 -10 9 -10 6 0 13 5 16 10 3 6 -1 10 -9 10 -9 0 -16 -4 -16 -10z"></path> <path d="M1999 965 c-3 -2 -60 -5 -127 -6 -70 0 -120 -5 -116 -10 3 -5 0 -9 -5 -9 -6 0 -11 4 -11 8 0 5 -6 9 -13 9 -29 0 -12 -24 17 -25 43 -3 64 -7 72 -15 10 -10 26 -9 20 1 -3 5 1 9 9 9 8 0 12 -4 9 -9 -6 -9 32 -5 42 5 4 4 30 8 58 9 l51 1 -45 7 -45 7 42 1 c23 1 45 7 48 12 6 10 2 14 -6 5z"></path> <path d="M1839 900 c0 -3 -2 -71 -2 -152 -2 -120 1 -148 12 -148 11 0 11 -3 1 -15 -11 -13 -10 -14 3 -10 23 9 28 43 26 193 -1 129 -2 138 -20 138 -10 0 -19 -3 -20 -6z m14 -25 c-7 -21 -12 -19 -10 4 0 11 5 18 9 15 4 -3 5 -11 1 -19z"></path> <path d="M902 325 c-15 -32 -12 -38 16 -33 18 3 19 6 8 32 l-12 29 -12 -28z"></path> <path d="M2171 371 c-32 -32 -31 -76 1 -104 42 -35 99 -6 100 51 2 58 -62 92 -101 53z"></path> </g> </svg>