<svg xmlns="http://www.w3.org/2000/svg" viewBox="62.17 2 148 148" width="512" height="512"><g transform="translate(0,253) scale(0.1,-0.1)" fill="#0048B0"><path d="M1487 2311 c39 -10 97 -33 129 -51 77 -44 196 -158 250 -241 39 -60 89 -167 82 -175 -2 -1 -36 17 -75 41 -128 79 -276 153 -348 175 -42 13 -110 24 -172 27 -91 5 -110 3 -187 -21 -165 -51 -323 -191 -374 -331 -21 -58 -14 75 9 161 29 110 73 188 149 264 142 142 350 201 537 151z m-85 -307 c-119 -94 -158 -296 -84 -446 73 -149 196 -231 345 -229 37 0 67 -1 67 -3 0 -2 -47 -16 -104 -31 -98 -26 -109 -27 -183 -16 -196 29 -347 171 -388 368 -16 78 -12 145 16 228 30 90 55 115 136 136 37 10 104 18 148 18 l80 1 -33 -26z m186 -17 l31 -13 -30 -19 c-98 -65 -136 -212 -87 -342 15 -41 38 -74 77 -114 47 -47 68 -59 136 -81 l80 -27 -76 0 c-92 -1 -167 20 -237 66 -154 103 -188 324 -71 467 59 71 113 90 177 63z m-579 -94 c-20 -54 -30 -180 -19 -250 26 -159 134 -305 280 -376 95 -47 191 -71 247 -63 58 8 54 0 -10 -19 -82 -24 -237 -21 -317 5 -82 27 -166 78 -224 135 -50 48 -124 157 -150 219 -15 36 -15 43 -1 87 26 78 71 152 136 222 33 37 63 67 65 67 2 0 -1 -12 -7 -27z m-194 -892 c3 -5 2 -12 -3 -15 -5 -3 -9 1 -9 9 0 17 3 19 12 6z m509 0 c3 -5 -2 -15 -12 -22 -15 -12 -16 -12 -5 2 7 9 10 19 6 22 -3 4 -4 7 0 7 3 0 8 -4 11 -9z m-989 -10 c3 -5 2 -12 -3 -15 -5 -3 -9 1 -9 9 0 17 3 19 12 6z m228 -15 c21 -8 47 -22 58 -32 19 -17 19 -18 -7 -45 l-27 -28 -27 20 c-53 40 -159 20 -195 -35 -20 -29 -30 -87 -21 -120 9 -35 55 -87 91 -102 36 -15 108 -3 136 22 14 13 19 11 44 -12 l29 -27 -30 -23 c-61 -50 -162 -56 -243 -14 -75 38 -130 142 -116 219 27 143 171 225 308 177z m516 -17 c47 -26 97 -95 107 -146 16 -85 -27 -184 -99 -230 -58 -37 -156 -44 -213 -15 -146 75 -169 270 -44 371 22 17 50 36 62 41 39 17 141 5 187 -21z m464 1 l36 -22 -22 -33 -21 -33 -29 24 c-16 13 -38 24 -51 24 -27 0 -66 -26 -66 -45 0 -18 57 -62 93 -71 16 -3 47 -24 69 -45 39 -37 40 -40 36 -89 -6 -56 -26 -86 -75 -106 -46 -20 -100 -17 -149 7 -64 31 -71 43 -41 78 24 29 25 29 42 11 41 -45 118 -50 134 -8 14 40 0 57 -75 92 -82 40 -107 68 -106 126 1 54 17 78 65 101 51 24 108 19 160 -11z m817 -177 c51 -115 98 -214 104 -222 9 -12 7 -13 -14 -8 -14 4 -37 7 -51 7 -19 0 -29 9 -42 35 l-17 35 -84 0 -84 0 -15 -37 c-14 -35 -17 -37 -60 -38 l-45 0 33 65 c18 36 49 103 70 150 78 178 98 220 105 220 4 0 49 -93 100 -207z m-330 162 l0 -35 -65 0 -65 0 3 -177 2 -178 -47 0 -48 0 0 178 0 179 -60 -4 -60 -3 0 38 0 37 170 0 170 0 0 -35z m-1639 -148 c-10 -9 -11 -8 -5 6 3 10 9 15 12 12 3 -3 0 -11 -7 -18z m804 -156 c3 -5 2 -12 -3 -15 -5 -3 -9 1 -9 9 0 17 3 19 12 6z m-745 -201 c0 -5 -2 -10 -4 -10 -3 0 -8 5 -11 10 -3 6 -1 10 4 10 6 0 11 -4 11 -10z m-22 -35 c12 -3 22 -13 22 -20 0 -11 -11 -13 -48 -8 -56 6 -73 -7 -74 -58 -1 -36 35 -74 61 -65 58 18 61 18 61 2 0 -17 -37 -36 -72 -36 -31 0 -88 63 -88 98 0 33 32 79 64 92 21 8 29 8 74 -5z m113 -73 l-2 -84 43 4 c34 2 43 0 46 -14 3 -16 -5 -18 -57 -18 l-61 0 0 101 c0 88 2 100 17 97 14 -3 16 -16 14 -86z m422 -14 c39 -83 43 -98 28 -98 -10 0 -23 11 -29 24 -9 21 -17 25 -47 23 -23 -2 -40 -10 -51 -25 -8 -12 -21 -22 -29 -22 -9 0 -2 27 26 92 43 98 50 111 54 106 1 -2 23 -47 48 -100z m212 -23 c-2 11 -6 41 -9 68 -5 42 -4 47 14 47 19 0 20 -7 20 -97 l0 -97 -62 62 -63 62 3 -60 c4 -55 2 -60 -17 -60 -20 0 -21 5 -21 103 l1 102 69 -75 c41 -45 68 -67 65 -55z m552 103 c22 -18 3 -28 -38 -22 -50 8 -79 -14 -79 -62 0 -38 29 -64 72 -64 21 0 28 5 28 20 0 11 -7 20 -15 20 -8 0 -15 7 -15 15 0 10 10 15 33 15 31 0 32 -2 32 -40 0 -35 -4 -41 -29 -50 -50 -17 -76 -12 -112 24 -52 52 -44 108 19 147 33 20 78 18 104 -3z m317 9 c25 -11 27 -14 13 -25 -12 -10 -21 -11 -36 -3 -51 28 -108 -46 -75 -96 20 -32 37 -37 74 -25 20 8 32 8 36 1 10 -17 -10 -30 -53 -36 -33 -4 -43 -1 -71 25 -52 48 -41 125 23 160 26 15 53 14 89 -1z m209 2 c28 -13 57 -58 57 -89 0 -31 -29 -76 -57 -89 -93 -43 -184 64 -122 143 34 43 77 55 122 35z m-1463 -14 c0 -11 -12 -15 -45 -15 -41 0 -45 -2 -45 -24 0 -22 3 -24 40 -20 34 3 40 1 40 -16 0 -17 -7 -20 -40 -20 -36 0 -40 -2 -40 -25 0 -15 5 -25 13 -24 41 5 77 -2 77 -16 0 -12 -13 -15 -59 -15 l-60 0 -3 95 -3 95 63 0 c48 0 62 -3 62 -15z m510 -80 c0 -88 -1 -95 -20 -95 -19 0 -20 7 -20 95 0 88 1 95 20 95 19 0 20 -7 20 -95z m127 33 l62 -62 -5 62 c-5 58 -4 62 15 62 20 0 21 -5 21 -97 l-1 -98 -75 78 c-41 43 -70 69 -65 58 6 -11 11 -45 11 -76 0 -46 -3 -56 -16 -53 -12 2 -16 21 -17 96 -1 50 0 92 3 92 2 0 33 -28 67 -62z m971 -101 c4 -21 -25 -34 -40 -19 -8 8 -8 16 2 27 16 19 34 15 38 -8z"></path></g></svg>